<?xml version="1.0" encoding="UTF-8" standalone="no"?>
<!-- Created with Inkscape (http://www.inkscape.org/) -->

<svg
   width="16.933332mm"
   height="16.933331mm"
   viewBox="0 0 16.933332 16.93333"
   version="1.1"
   id="svg5"
   sodipodi:docname="drawing-1.svg"
   inkscape:version="1.1.2 (b8e25be8, 2022-02-05)"
   xmlns:inkscape="http://www.inkscape.org/namespaces/inkscape"
   xmlns:sodipodi="http://sodipodi.sourceforge.net/DTD/sodipodi-0.dtd"
   xmlns="http://www.w3.org/2000/svg"
   xmlns:svg="http://www.w3.org/2000/svg">
  <sodipodi:namedview
     id="namedview7"
     pagecolor="#ffffff"
     bordercolor="#666666"
     borderopacity="1.0"
     inkscape:pageshadow="2"
     inkscape:pageopacity="0.0"
     inkscape:pagecheckerboard="0"
     inkscape:document-units="mm"
     showgrid="false"
     inkscape:zoom="2.3855072"
     inkscape:cx="121.98664"
     inkscape:cy="-3.1439855"
     inkscape:window-width="1920"
     inkscape:window-height="1027"
     inkscape:window-x="0"
     inkscape:window-y="25"
     inkscape:window-maximized="1"
     inkscape:current-layer="layer1" />
  <defs
     id="defs2" />
  <g
     inkscape:label="Layer 1"
     inkscape:groupmode="layer"
     id="layer1"
     transform="translate(-38.494147,-155.21312)">
    <path
       d="m 44.674813,167.91312 h 1.27 v -3.4925 h 2.794 v -1.5875 h -2.794 v -3.4925 h -1.27 v 3.4925 h -2.794 v 1.5875 h 2.794 z m -4.910666,4.23333 q -0.508,0 -0.889,-0.47626 -0.381,-0.47624 -0.381,-1.11124 v -13.75833 q 0,-0.635 0.381,-1.11124 0.381,-0.47626 0.889,-0.47626 h 11.006666 q 0.508,0 0.889,0.47626 0.381,0.47624 0.381,1.11124 v 5.68854 l 3.386667,-4.23334 v 10.84791 l -3.386667,-4.23331 v 5.68853 q 0,0.635 -0.381,1.11124 -0.381,0.47626 -0.889,0.47626 z m 0,-1.5875 H 50.770813 V 156.80062 H 39.764147 Z m 0,0 v -13.75833 z"
       id="path9"
       style="fill:#008000;stroke-width:0.4733" />
  </g>
</svg>
